<?xml version="1.0" encoding="UTF-8" standalone="no"?>
<!-- Created with Inkscape (http://www.inkscape.org/) -->

<svg
   version="1.1"
   id="svg2"
   xml:space="preserve"
   width="656.85333"
   height="600.45331"
   viewBox="0 0 656.85333 600.45331"
   sodipodi:docname="logo.eps"
   xmlns:inkscape="http://www.inkscape.org/namespaces/inkscape"
   xmlns:sodipodi="http://sodipodi.sourceforge.net/DTD/sodipodi-0.dtd"
   xmlns="http://www.w3.org/2000/svg"
   xmlns:svg="http://www.w3.org/2000/svg"><defs
     id="defs6" /><sodipodi:namedview
     id="namedview4"
     pagecolor="#ffffff"
     bordercolor="#ffffff"
     borderopacity="1.0"
     inkscape:pageshadow="2"
     inkscape:pageopacity="0.0"
     inkscape:pagecheckerboard="0" /><g
     id="g8"
     inkscape:groupmode="layer"
     inkscape:label="ink_ext_XXXXXX"
     transform="matrix(1.3333333,0,0,-1.3333333,0,600.45333)"><g
       id="g10"
       transform="scale(0.1)"><path
         d="m 2870.91,2711.05 c 0,0 -153.34,-374.59 -502.09,-740.16 l -29.06,-24.93 c 0,0 91.07,531.89 544.11,798.16 z m -1441.93,324.24 c 166.21,232.3 286.91,324.28 373.68,420.21 557.29,618.86 1218.19,494.71 1218.19,494.71 -648.24,-802.44 -1160.06,-1093.66 -1160.06,-1093.66 -49.87,-29.49 -116.27,-79.38 -144.9,-120.7 0,0 0,0 174.44,87.82 402.96,203.38 1142.92,1001.69 1142.92,1001.69 37.21,41.18 62.57,78.82 116.65,61.98 0,0 195.37,-61.98 -154.16,-615.29 C 2655.4,2731.7 1868.93,2319.93 1428.98,2124.67 c -183.62,-82.81 -307.89,-129.14 -307.89,-129.14 -54.04,-158.08 66.27,-170.31 145.5,-170.31 16.58,0 79.45,24.94 162.39,62.74 315.54,145.63 960.51,482.15 960.51,482.15 C 1886.36,1451.24 1977.7,952.371 2048.23,790.289 c 66.14,-153.769 431.9,8.313 303.75,107.609 -320.54,253.892 -95.94,781.642 -95.94,781.642 843.65,852.91 830.99,1264.1 830.99,1264.1 95.55,116.61 171.17,228.91 220.99,328.41 236.49,461.5 53.78,752.55 0,819.57 -8.23,8.25 -12.31,15.64 -12.31,15.64 4.08,4.86 8.22,9.29 12.31,17.42 60.84,78.06 127.59,196.86 178.31,294.74 l -84.14,83.97 c -56.67,-121.19 -132.5,-272.75 -181.75,-329 0,0 -511.26,178.74 -1005.69,-91.05 C 1486.68,3683.81 938.379,2798.14 526.633,1800.41 392.281,1472.33 104.336,549.758 0,210.57 L 210.438,0 C 677.43,1445.77 1185.42,2688.76 1428.98,3035.29"
         style="fill:#ffffff;fill-opacity:1;fill-rule:nonzero;stroke:none"
         id="path12" /><path
         d="m 4858.82,1966.59 c 179,0 -42.08,174.49 -149.86,141.55 -161.47,-49.57 -469.62,-332.52 -469.62,-340.75 0,-4.3 66.14,299.27 95.38,353.27 53.69,99.82 -107.48,120.46 -136.93,49.6 -228.78,-519.48 -319.73,-1130.82 -319.73,-1130.82 -75.27,-20.62 -329.12,-108.292 -570.04,-203.67 -233.13,-95.821 -457.17,-195.418 -491.15,-249.711 -41.6,-70.278 129.48,-62.141 166.48,-45.469 112.21,58.129 220.81,112.469 324.67,162.039 596.92,270.242 1094.87,422.551 1440.81,481.291 l 125.75,81.64 c -391.43,-66.4 -843.61,-159.24 -843.61,-159.24 171.51,802.3 732.77,860.27 827.85,860.27"
         style="fill:#ffffff;fill-opacity:1;fill-rule:nonzero;stroke:none"
         id="path14" /><path
         d="m 2850.85,1118.38 c -33.98,-25.23 -149.64,-83.12 -62.61,99.94 107.77,220.65 507.47,611.04 507.47,611.04 53.69,54.56 153.16,74.97 107.39,-4.14 -119.79,-224.48 -515.18,-681.74 -552.25,-706.84 z m 295.17,-170.142 c 12.41,-46.367 82.64,-58.429 132.84,-8.129 4.45,3.95 16.85,16.661 29.16,32.762 136.42,149.979 639.97,727.349 677.47,843.959 45.48,129.13 -45.46,87.5 -53.99,67.09 -4.14,-16.8 -520.14,-644.62 -556.99,-678.13 -25.11,-20.8 -53.7,-45.6 -66.49,-28.94 -4.09,8.14 -4.09,20.5 -4.09,37.04 0,8.43 0,21.57 4.09,42.19 33.16,132.42 170.65,502.99 299.62,673.31 140.8,178.75 -83.8,137.27 -83.8,137.27 0,0 -82.94,8.27 -215.82,-71.13 -154.03,-95.21 -378.11,-311.72 -619.21,-806.62 0,0 -112.48,-190.93 -46.08,-278.769 41.77,-57.883 419.45,233.339 539.85,416.219 121.35,178.75 -78.5,-220.04 -36.56,-378.122"
         style="fill:#ffffff;fill-opacity:1;fill-rule:nonzero;stroke:none"
         id="path16" /><path
         d="m 381.344,2170.26 c 24.547,0 82.98,20.55 145.289,41.34 82.289,33.79 166.172,71.14 179.129,91.51 l 3.535,4.14 c 0,0 -95.899,-16.39 -182.664,-33.05 -62.309,-7.97 -120.742,-20.37 -141.41,-20.37 -49.606,-4.14 -54.043,-91.96 -3.879,-83.57"
         style="fill:#ffffff;fill-opacity:1;fill-rule:nonzero;stroke:none"
         id="path18" /><path
         d="m 1241.83,2428.24 c 0,0 91.2,49.61 187.15,112.18 102.99,58.17 215.73,129.29 245.57,154.11 62.01,49.59 -24.8,16.52 -24.8,16.52 -9,12.55 -113.64,-46.19 -220.77,-112.46 -116.92,-75.26 -241.62,-162.18 -258.33,-186.86 -28.89,-49.86 71.18,16.51 71.18,16.51"
         style="fill:#ffffff;fill-opacity:1;fill-rule:nonzero;stroke:none"
         id="path20" /><path
         d="m 1574.48,1530.04 c -46.34,45.17 -104.21,29.54 -145.5,8.26 -24.81,-16.53 -41.34,-33.19 -41.34,-33.19 -108.65,-253.16 -245.88,-939.551 -216.99,-976.93 28.98,-37.2 124.58,-16.532 153.81,37.379 8.57,16.359 49.61,62.691 104.52,128.839 174.74,195.411 498.85,548.552 498.85,548.552 0,0 41.3,71.18 16.5,95.81 -25.1,24.81 -83.54,-12.4 -87.03,-49.74 0,0 -296.09,-307.75 -428.32,-453.25 -20.98,-24.641 -37.34,-45.481 -50.17,-57.879 -37.08,-50.59 -41.04,-87.629 -45.78,45.609 -4.13,62.168 45.78,191.01 95.95,319.98 78.23,178.75 166.21,365.89 145.5,386.56"
         style="fill:#ffffff;fill-opacity:1;fill-rule:nonzero;stroke:none"
         id="path22" /></g></g></svg>
